<mxfile host="app.diagrams.net" agent="Mozilla/5.0 (Windows NT 10.0; Win64; x64; rv:134.0) Gecko/20100101 Firefox/134.0" version="26.0.10">
  <diagram name="Page-1" id="kHxcnkHQ0jo4dCnuXFYC">
    <mxGraphModel dx="791" dy="437" grid="1" gridSize="10" guides="1" tooltips="1" connect="1" arrows="1" fold="1" page="1" pageScale="1" pageWidth="850" pageHeight="1100" math="0" shadow="0">
      <root>
        <mxCell id="0" />
        <mxCell id="1" parent="0" />
        <mxCell id="2zMSPS37taLSn4fJw4Hg-1" value="Mantenimiento preventivo" style="swimlane;html=1;childLayout=stackLayout;resizeParent=1;resizeParentMax=0;horizontal=1;startSize=20;horizontalStack=0;whiteSpace=wrap;" vertex="1" parent="1">
          <mxGeometry x="180" y="90" width="870" height="350" as="geometry" />
        </mxCell>
        <mxCell id="2zMSPS37taLSn4fJw4Hg-2" value="Supervisor" style="swimlane;html=1;startSize=20;horizontal=0;" vertex="1" parent="2zMSPS37taLSn4fJw4Hg-1">
          <mxGeometry y="20" width="870" height="210" as="geometry" />
        </mxCell>
        <mxCell id="2zMSPS37taLSn4fJw4Hg-5" value="" style="points=[[0.145,0.145,0],[0.5,0,0],[0.855,0.145,0],[1,0.5,0],[0.855,0.855,0],[0.5,1,0],[0.145,0.855,0],[0,0.5,0]];shape=mxgraph.bpmn.event;html=1;verticalLabelPosition=bottom;labelBackgroundColor=#ffffff;verticalAlign=top;align=center;perimeter=ellipsePerimeter;outlineConnect=0;aspect=fixed;outline=standard;symbol=timer;" vertex="1" parent="2zMSPS37taLSn4fJw4Hg-2">
          <mxGeometry x="50" y="60" width="25" height="25" as="geometry" />
        </mxCell>
        <mxCell id="2zMSPS37taLSn4fJw4Hg-6" value="&lt;div&gt;Ultimo Lunes&lt;/div&gt;&lt;div&gt;cada mes&lt;br&gt;&lt;/div&gt;" style="text;html=1;align=center;verticalAlign=middle;resizable=0;points=[];autosize=1;strokeColor=none;fillColor=none;" vertex="1" parent="2zMSPS37taLSn4fJw4Hg-2">
          <mxGeometry x="12.5" y="20" width="100" height="40" as="geometry" />
        </mxCell>
        <mxCell id="2zMSPS37taLSn4fJw4Hg-7" value="&lt;div&gt;Enviar&lt;/div&gt;&lt;div&gt;convocatoria&lt;br&gt;&lt;/div&gt;" style="points=[[0.25,0,0],[0.5,0,0],[0.75,0,0],[1,0.25,0],[1,0.5,0],[1,0.75,0],[0.75,1,0],[0.5,1,0],[0.25,1,0],[0,0.75,0],[0,0.5,0],[0,0.25,0]];shape=mxgraph.bpmn.task2;whiteSpace=wrap;rectStyle=rounded;size=10;html=1;container=1;expand=0;collapsible=0;taskMarker=send;" vertex="1" parent="2zMSPS37taLSn4fJw4Hg-2">
          <mxGeometry x="120" y="30" width="107.5" height="60" as="geometry" />
        </mxCell>
        <mxCell id="2zMSPS37taLSn4fJw4Hg-8" value="" style="endArrow=classic;html=1;rounded=0;exitX=1;exitY=0.5;exitDx=0;exitDy=0;exitPerimeter=0;entryX=0;entryY=0.5;entryDx=0;entryDy=0;entryPerimeter=0;" edge="1" parent="2zMSPS37taLSn4fJw4Hg-2" source="2zMSPS37taLSn4fJw4Hg-5" target="2zMSPS37taLSn4fJw4Hg-7">
          <mxGeometry width="50" height="50" relative="1" as="geometry">
            <mxPoint x="160" y="170" as="sourcePoint" />
            <mxPoint x="110" y="73" as="targetPoint" />
          </mxGeometry>
        </mxCell>
        <mxCell id="2zMSPS37taLSn4fJw4Hg-14" value="&lt;div&gt;Instrucciones&lt;/div&gt;&lt;div&gt;detalladas&lt;br&gt;&lt;/div&gt;" style="points=[[0.25,0,0],[0.5,0,0],[0.75,0,0],[1,0.25,0],[1,0.5,0],[1,0.75,0],[0.75,1,0],[0.5,1,0],[0.25,1,0],[0,0.75,0],[0,0.5,0],[0,0.25,0]];shape=mxgraph.bpmn.task2;whiteSpace=wrap;rectStyle=rounded;size=10;html=1;container=1;expand=0;collapsible=0;taskMarker=send;" vertex="1" parent="2zMSPS37taLSn4fJw4Hg-2">
          <mxGeometry x="260" y="30" width="107.5" height="60" as="geometry" />
        </mxCell>
        <mxCell id="2zMSPS37taLSn4fJw4Hg-23" value="" style="edgeStyle=orthogonalEdgeStyle;rounded=0;orthogonalLoop=1;jettySize=auto;html=1;" edge="1" parent="2zMSPS37taLSn4fJw4Hg-2" source="2zMSPS37taLSn4fJw4Hg-20" target="2zMSPS37taLSn4fJw4Hg-22">
          <mxGeometry relative="1" as="geometry" />
        </mxCell>
        <mxCell id="2zMSPS37taLSn4fJw4Hg-20" value="&lt;div&gt;Revision del&lt;/div&gt;&lt;div&gt;supervisor&lt;br&gt;&lt;/div&gt;" style="whiteSpace=wrap;html=1;" vertex="1" parent="2zMSPS37taLSn4fJw4Hg-2">
          <mxGeometry x="385" y="30" width="120" height="60" as="geometry" />
        </mxCell>
        <mxCell id="2zMSPS37taLSn4fJw4Hg-26" value="" style="edgeStyle=orthogonalEdgeStyle;rounded=0;orthogonalLoop=1;jettySize=auto;html=1;" edge="1" parent="2zMSPS37taLSn4fJw4Hg-2" source="2zMSPS37taLSn4fJw4Hg-22" target="2zMSPS37taLSn4fJw4Hg-25">
          <mxGeometry relative="1" as="geometry" />
        </mxCell>
        <mxCell id="2zMSPS37taLSn4fJw4Hg-33" value="" style="edgeStyle=orthogonalEdgeStyle;rounded=0;orthogonalLoop=1;jettySize=auto;html=1;" edge="1" parent="2zMSPS37taLSn4fJw4Hg-2" source="2zMSPS37taLSn4fJw4Hg-22" target="2zMSPS37taLSn4fJw4Hg-32">
          <mxGeometry relative="1" as="geometry" />
        </mxCell>
        <mxCell id="2zMSPS37taLSn4fJw4Hg-22" value="" style="rhombus;whiteSpace=wrap;html=1;" vertex="1" parent="2zMSPS37taLSn4fJw4Hg-2">
          <mxGeometry x="550" y="40" width="40" height="40" as="geometry" />
        </mxCell>
        <mxCell id="2zMSPS37taLSn4fJw4Hg-30" value="" style="edgeStyle=orthogonalEdgeStyle;rounded=0;orthogonalLoop=1;jettySize=auto;html=1;" edge="1" parent="2zMSPS37taLSn4fJw4Hg-2" source="2zMSPS37taLSn4fJw4Hg-25" target="2zMSPS37taLSn4fJw4Hg-29">
          <mxGeometry relative="1" as="geometry" />
        </mxCell>
        <mxCell id="2zMSPS37taLSn4fJw4Hg-25" value="&lt;div&gt;Redactar informe&lt;/div&gt;&lt;div&gt;con resultados&lt;br&gt;&lt;/div&gt;&lt;div&gt;&amp;nbsp;al director&lt;br&gt;&lt;/div&gt;" style="whiteSpace=wrap;html=1;" vertex="1" parent="2zMSPS37taLSn4fJw4Hg-2">
          <mxGeometry x="630" y="30" width="120" height="60" as="geometry" />
        </mxCell>
        <mxCell id="2zMSPS37taLSn4fJw4Hg-27" value="si" style="text;html=1;align=center;verticalAlign=middle;resizable=0;points=[];autosize=1;strokeColor=none;fillColor=none;" vertex="1" parent="2zMSPS37taLSn4fJw4Hg-2">
          <mxGeometry x="590" y="30" width="30" height="30" as="geometry" />
        </mxCell>
        <mxCell id="2zMSPS37taLSn4fJw4Hg-28" value="no" style="text;html=1;align=center;verticalAlign=middle;resizable=0;points=[];autosize=1;strokeColor=none;fillColor=none;" vertex="1" parent="2zMSPS37taLSn4fJw4Hg-2">
          <mxGeometry x="585" y="57.5" width="40" height="30" as="geometry" />
        </mxCell>
        <mxCell id="2zMSPS37taLSn4fJw4Hg-29" value="" style="points=[[0.145,0.145,0],[0.5,0,0],[0.855,0.145,0],[1,0.5,0],[0.855,0.855,0],[0.5,1,0],[0.145,0.855,0],[0,0.5,0]];shape=mxgraph.bpmn.event;html=1;verticalLabelPosition=bottom;labelBackgroundColor=#ffffff;verticalAlign=top;align=center;perimeter=ellipsePerimeter;outlineConnect=0;aspect=fixed;outline=end;symbol=terminate2;" vertex="1" parent="2zMSPS37taLSn4fJw4Hg-2">
          <mxGeometry x="790" y="35" width="50" height="50" as="geometry" />
        </mxCell>
        <mxCell id="2zMSPS37taLSn4fJw4Hg-24" value="Esta en orden?" style="text;html=1;align=center;verticalAlign=middle;resizable=0;points=[];autosize=1;strokeColor=none;fillColor=none;" vertex="1" parent="2zMSPS37taLSn4fJw4Hg-2">
          <mxGeometry x="510" y="5" width="110" height="30" as="geometry" />
        </mxCell>
        <mxCell id="2zMSPS37taLSn4fJw4Hg-32" value="&lt;div&gt;Notificar areas&lt;/div&gt;&lt;div&gt;no conformes&lt;br&gt;&lt;/div&gt;" style="whiteSpace=wrap;html=1;" vertex="1" parent="2zMSPS37taLSn4fJw4Hg-2">
          <mxGeometry x="550" y="120" width="120" height="60" as="geometry" />
        </mxCell>
        <mxCell id="2zMSPS37taLSn4fJw4Hg-10" value="" style="endArrow=classic;html=1;rounded=0;exitX=0.54;exitY=0.971;exitDx=0;exitDy=0;exitPerimeter=0;entryX=0.5;entryY=0;entryDx=0;entryDy=0;entryPerimeter=0;" edge="1" parent="2zMSPS37taLSn4fJw4Hg-1" source="2zMSPS37taLSn4fJw4Hg-7" target="2zMSPS37taLSn4fJw4Hg-9">
          <mxGeometry width="50" height="50" relative="1" as="geometry">
            <mxPoint x="210" y="140" as="sourcePoint" />
            <mxPoint x="260" y="90" as="targetPoint" />
          </mxGeometry>
        </mxCell>
        <mxCell id="2zMSPS37taLSn4fJw4Hg-3" value="Equipo mant." style="swimlane;html=1;startSize=20;horizontal=0;" vertex="1" parent="2zMSPS37taLSn4fJw4Hg-1">
          <mxGeometry y="230" width="870" height="120" as="geometry" />
        </mxCell>
        <mxCell id="2zMSPS37taLSn4fJw4Hg-9" value="&lt;div&gt;Recibir&lt;/div&gt;&lt;div&gt;convocatoria&lt;br&gt;&lt;/div&gt;" style="points=[[0.25,0,0],[0.5,0,0],[0.75,0,0],[1,0.25,0],[1,0.5,0],[1,0.75,0],[0.75,1,0],[0.5,1,0],[0.25,1,0],[0,0.75,0],[0,0.5,0],[0,0.25,0]];shape=mxgraph.bpmn.task2;whiteSpace=wrap;rectStyle=rounded;size=10;html=1;container=1;expand=0;collapsible=0;taskMarker=receive;" vertex="1" parent="2zMSPS37taLSn4fJw4Hg-3">
          <mxGeometry x="75" y="30" width="106.25" height="60" as="geometry" />
        </mxCell>
        <mxCell id="2zMSPS37taLSn4fJw4Hg-11" value="" style="points=[[0.145,0.145,0],[0.5,0,0],[0.855,0.145,0],[1,0.5,0],[0.855,0.855,0],[0.5,1,0],[0.145,0.855,0],[0,0.5,0]];shape=mxgraph.bpmn.event;html=1;verticalLabelPosition=bottom;labelBackgroundColor=#ffffff;verticalAlign=top;align=center;perimeter=ellipsePerimeter;outlineConnect=0;aspect=fixed;outline=catching;symbol=timer;" vertex="1" parent="2zMSPS37taLSn4fJw4Hg-3">
          <mxGeometry x="215" y="-10" width="30" height="30" as="geometry" />
        </mxCell>
        <mxCell id="2zMSPS37taLSn4fJw4Hg-12" value="" style="endArrow=classic;html=1;rounded=0;entryX=0.5;entryY=1;entryDx=0;entryDy=0;entryPerimeter=0;exitX=1;exitY=0.5;exitDx=0;exitDy=0;exitPerimeter=0;" edge="1" parent="2zMSPS37taLSn4fJw4Hg-3" source="2zMSPS37taLSn4fJw4Hg-9" target="2zMSPS37taLSn4fJw4Hg-11">
          <mxGeometry width="50" height="50" relative="1" as="geometry">
            <mxPoint x="254.75" y="40" as="sourcePoint" />
            <mxPoint x="236" y="102" as="targetPoint" />
          </mxGeometry>
        </mxCell>
        <mxCell id="2zMSPS37taLSn4fJw4Hg-19" value="" style="edgeStyle=orthogonalEdgeStyle;rounded=0;orthogonalLoop=1;jettySize=auto;html=1;" edge="1" parent="2zMSPS37taLSn4fJw4Hg-3" source="2zMSPS37taLSn4fJw4Hg-13" target="2zMSPS37taLSn4fJw4Hg-18">
          <mxGeometry relative="1" as="geometry" />
        </mxCell>
        <mxCell id="2zMSPS37taLSn4fJw4Hg-13" value="&lt;div&gt;Recibir&lt;/div&gt;&lt;div&gt;instrucciones&lt;br&gt;&lt;/div&gt;" style="points=[[0.25,0,0],[0.5,0,0],[0.75,0,0],[1,0.25,0],[1,0.5,0],[1,0.75,0],[0.75,1,0],[0.5,1,0],[0.25,1,0],[0,0.75,0],[0,0.5,0],[0,0.25,0]];shape=mxgraph.bpmn.task2;whiteSpace=wrap;rectStyle=rounded;size=10;html=1;container=1;expand=0;collapsible=0;taskMarker=receive;" vertex="1" parent="2zMSPS37taLSn4fJw4Hg-3">
          <mxGeometry x="260" y="20" width="106.25" height="60" as="geometry" />
        </mxCell>
        <mxCell id="2zMSPS37taLSn4fJw4Hg-18" value="&lt;div&gt;Ejecutar&lt;/div&gt;&lt;div&gt;mantenimiento&lt;br&gt;&lt;/div&gt;" style="whiteSpace=wrap;html=1;" vertex="1" parent="2zMSPS37taLSn4fJw4Hg-3">
          <mxGeometry x="400" y="20" width="90" height="60" as="geometry" />
        </mxCell>
        <mxCell id="2zMSPS37taLSn4fJw4Hg-15" value="" style="endArrow=classic;html=1;rounded=0;entryX=0.016;entryY=0.877;entryDx=0;entryDy=0;entryPerimeter=0;exitX=0.5;exitY=0;exitDx=0;exitDy=0;exitPerimeter=0;" edge="1" parent="2zMSPS37taLSn4fJw4Hg-1" source="2zMSPS37taLSn4fJw4Hg-11" target="2zMSPS37taLSn4fJw4Hg-14">
          <mxGeometry width="50" height="50" relative="1" as="geometry">
            <mxPoint x="270" y="150" as="sourcePoint" />
            <mxPoint x="319" y="110" as="targetPoint" />
          </mxGeometry>
        </mxCell>
        <mxCell id="2zMSPS37taLSn4fJw4Hg-17" value="" style="endArrow=classic;html=1;rounded=0;entryX=0.5;entryY=0;entryDx=0;entryDy=0;entryPerimeter=0;exitX=0.5;exitY=1;exitDx=0;exitDy=0;exitPerimeter=0;" edge="1" parent="2zMSPS37taLSn4fJw4Hg-1" source="2zMSPS37taLSn4fJw4Hg-14" target="2zMSPS37taLSn4fJw4Hg-13">
          <mxGeometry width="50" height="50" relative="1" as="geometry">
            <mxPoint x="297.75" y="137" as="sourcePoint" />
            <mxPoint x="329.75" y="110" as="targetPoint" />
          </mxGeometry>
        </mxCell>
        <mxCell id="2zMSPS37taLSn4fJw4Hg-21" value="" style="edgeStyle=orthogonalEdgeStyle;rounded=0;orthogonalLoop=1;jettySize=auto;html=1;" edge="1" parent="2zMSPS37taLSn4fJw4Hg-1" source="2zMSPS37taLSn4fJw4Hg-18" target="2zMSPS37taLSn4fJw4Hg-20">
          <mxGeometry relative="1" as="geometry" />
        </mxCell>
        <mxCell id="2zMSPS37taLSn4fJw4Hg-34" style="edgeStyle=orthogonalEdgeStyle;rounded=0;orthogonalLoop=1;jettySize=auto;html=1;entryX=1;entryY=0.5;entryDx=0;entryDy=0;" edge="1" parent="2zMSPS37taLSn4fJw4Hg-1" source="2zMSPS37taLSn4fJw4Hg-32" target="2zMSPS37taLSn4fJw4Hg-18">
          <mxGeometry relative="1" as="geometry" />
        </mxCell>
      </root>
    </mxGraphModel>
  </diagram>
</mxfile>
